<svg id="レイヤー_1" data-name="レイヤー 1" xmlns="http://www.w3.org/2000/svg" xmlns:xlink="http://www.w3.org/1999/xlink" viewBox="0 0 640 480"><defs><style>.cls-1{fill:url(#名称未設定グラデーション_5);}.cls-2{fill:#fff;opacity:0.1;}.cls-3{fill:url(#名称未設定グラデーション_6);}.cls-4{fill:url(#名称未設定グラデーション_305);}.cls-5{fill:url(#名称未設定グラデーション_5-2);}.cls-6{fill:url(#名称未設定グラデーション_317);}.cls-7{fill:url(#名称未設定グラデーション_305-2);}.cls-8{fill:url(#名称未設定グラデーション_5-3);}.cls-9{fill:url(#名称未設定グラデーション_395);}.cls-10{fill:url(#名称未設定グラデーション_305-3);}.cls-11{fill:url(#名称未設定グラデーション_5-4);}.cls-12{fill:url(#名称未設定グラデーション_462);}.cls-13{fill:url(#名称未設定グラデーション_305-4);}.cls-14{fill:url(#名称未設定グラデーション_5-5);}.cls-15{fill:url(#名称未設定グラデーション_582);}.cls-16{fill:url(#名称未設定グラデーション_305-5);}.cls-17{fill:url(#名称未設定グラデーション_5-6);}.cls-18{fill:url(#名称未設定グラデーション_660);}.cls-19{fill:url(#名称未設定グラデーション_305-6);}.cls-20{fill:none;}.cls-21{fill:url(#名称未設定グラデーション_6-2);}.cls-22{fill:url(#名称未設定グラデーション_317-2);}.cls-23{fill:url(#名称未設定グラデーション_395-2);}.cls-24{fill:url(#名称未設定グラデーション_462-2);}.cls-25{fill:url(#名称未設定グラデーション_582-2);}.cls-26{fill:url(#名称未設定グラデーション_660-2);}</style><linearGradient id="名称未設定グラデーション_5" x1="160" y1="72.73" x2="160" y2="7.27" gradientUnits="userSpaceOnUse"><stop offset="0" stop-color="#2d2d2d"/><stop offset="1"/></linearGradient><linearGradient id="名称未設定グラデーション_6" x1="160" y1="3.64" x2="160" y2="76.36" gradientUnits="userSpaceOnUse"><stop offset="0.39" stop-color="#2d2d2d"/><stop offset="1"/></linearGradient><linearGradient id="名称未設定グラデーション_305" x1="160" y1="80" x2="160" gradientUnits="userSpaceOnUse"><stop offset="0.07" stop-color="#6c6c6c"/><stop offset="1" stop-color="#0e0e0e"/></linearGradient><linearGradient id="名称未設定グラデーション_5-2" y1="152.73" y2="87.27" xlink:href="#名称未設定グラデーション_5"/><linearGradient id="名称未設定グラデーション_317" x1="160" y1="83.64" x2="160" y2="156.36" gradientUnits="userSpaceOnUse"><stop offset="0" stop-color="#ffffb7"/><stop offset="0.02" stop-color="#fefeb0"/><stop offset="0.21" stop-color="#f9f97b"/><stop offset="0.39" stop-color="#f5f54f"/><stop offset="0.56" stop-color="#f1f12d"/><stop offset="0.73" stop-color="#efef14"/><stop offset="0.88" stop-color="#eeee05"/><stop offset="1" stop-color="#eded00"/></linearGradient><linearGradient id="名称未設定グラデーション_305-2" y1="160" y2="80" xlink:href="#名称未設定グラデーション_305"/><linearGradient id="名称未設定グラデーション_5-3" y1="232.73" y2="167.27" xlink:href="#名称未設定グラデーション_5"/><linearGradient id="名称未設定グラデーション_395" x1="160" y1="163.64" x2="160" y2="236.36" gradientUnits="userSpaceOnUse"><stop offset="0" stop-color="#c0b7ff"/><stop offset="0.02" stop-color="#bab0fe"/><stop offset="0.21" stop-color="#8a7bf9"/><stop offset="0.39" stop-color="#634ff5"/><stop offset="0.56" stop-color="#442df1"/><stop offset="0.73" stop-color="#2e14ef"/><stop offset="0.88" stop-color="#2105ee"/><stop offset="1" stop-color="#1c00ed"/></linearGradient><linearGradient id="名称未設定グラデーション_305-3" y1="240" y2="160" xlink:href="#名称未設定グラデーション_305"/><linearGradient id="名称未設定グラデーション_5-4" y1="312.73" y2="247.27" xlink:href="#名称未設定グラデーション_5"/><linearGradient id="名称未設定グラデーション_462" x1="160" y1="243.64" x2="160" y2="316.36" gradientUnits="userSpaceOnUse"><stop offset="0" stop-color="#ffb7b7"/><stop offset="0.02" stop-color="#feb0b0"/><stop offset="0.21" stop-color="#f97b7b"/><stop offset="0.39" stop-color="#f54f4f"/><stop offset="0.56" stop-color="#f12d2d"/><stop offset="0.73" stop-color="#ef1414"/><stop offset="0.88" stop-color="#ee0505"/><stop offset="1" stop-color="#ed0000"/></linearGradient><linearGradient id="名称未設定グラデーション_305-4" y1="320" y2="240" xlink:href="#名称未設定グラデーション_305"/><linearGradient id="名称未設定グラデーション_5-5" y1="392.73" y2="327.27" xlink:href="#名称未設定グラデーション_5"/><linearGradient id="名称未設定グラデーション_582" x1="160" y1="323.64" x2="160" y2="396.36" gradientUnits="userSpaceOnUse"><stop offset="0" stop-color="#b4de9e"/><stop offset="0.14" stop-color="#99d57a"/><stop offset="0.33" stop-color="#78c94f"/><stop offset="0.52" stop-color="#5ec12d"/><stop offset="0.7" stop-color="#4bba14"/><stop offset="0.87" stop-color="#40b605"/><stop offset="1" stop-color="#3cb500"/></linearGradient><linearGradient id="名称未設定グラデーション_305-5" y1="400" y2="320" xlink:href="#名称未設定グラデーション_305"/><linearGradient id="名称未設定グラデーション_5-6" y1="472.73" y2="407.27" xlink:href="#名称未設定グラデーション_5"/><linearGradient id="名称未設定グラデーション_660" x1="160" y1="403.64" x2="160" y2="476.36" gradientUnits="userSpaceOnUse"><stop offset="0" stop-color="#edcd7b"/><stop offset="0" stop-color="#edcd7a"/><stop offset="0.23" stop-color="#e7b44f"/><stop offset="0.45" stop-color="#e2a02d"/><stop offset="0.65" stop-color="#de9214"/><stop offset="0.84" stop-color="#dc8a05"/><stop offset="1" stop-color="#db8700"/></linearGradient><linearGradient id="名称未設定グラデーション_305-6" y1="480" y2="400" xlink:href="#名称未設定グラデーション_305"/><linearGradient id="名称未設定グラデーション_6-2" x1="480" y1="3.64" x2="480" y2="76.36" xlink:href="#名称未設定グラデーション_6"/><linearGradient id="名称未設定グラデーション_317-2" x1="480" y1="83.64" x2="480" y2="156.36" xlink:href="#名称未設定グラデーション_317"/><linearGradient id="名称未設定グラデーション_395-2" x1="480" y1="163.64" x2="480" y2="236.36" xlink:href="#名称未設定グラデーション_395"/><linearGradient id="名称未設定グラデーション_462-2" x1="480" y1="243.64" x2="480" y2="316.36" xlink:href="#名称未設定グラデーション_462"/><linearGradient id="名称未設定グラデーション_582-2" x1="480" y1="323.64" x2="480" y2="396.36" xlink:href="#名称未設定グラデーション_582"/><linearGradient id="名称未設定グラデーション_660-2" x1="480" y1="403.64" x2="480" y2="476.36" xlink:href="#名称未設定グラデーション_660"/></defs><rect class="cls-1" x="7.8" y="7.27" width="304.39" height="65.45"/><polygon class="cls-2" points="25.07 72.73 60.7 72.73 129.97 7.27 94.34 7.27 25.07 72.73"/><polygon class="cls-2" points="7.8 26.91 7.8 60.58 64.22 7.27 28.59 7.27 7.8 26.91"/><path class="cls-3" d="M312.1,7.64V72.36H7.9V7.64H312.1m4-4H3.9V76.36H316.1V3.64Z"/><path class="cls-4" d="M316,4V76H4V4H316m4-4H0V80H320V0Z"/><rect class="cls-5" x="7.8" y="87.27" width="304.39" height="65.45"/><polygon class="cls-2" points="25.07 152.73 60.7 152.73 129.97 87.27 94.34 87.27 25.07 152.73"/><polygon class="cls-2" points="7.8 106.92 7.8 140.58 64.22 87.27 28.59 87.27 7.8 106.92"/><path class="cls-6" d="M312.1,87.64v64.72H7.9V87.64H312.1m4-4H3.9v72.72H316.1V83.64Z"/><path class="cls-7" d="M316,84v72H4V84H316m4-4H0v80H320V80Z"/><rect class="cls-8" x="7.8" y="167.27" width="304.39" height="65.45"/><polygon class="cls-2" points="25.07 232.73 60.7 232.73 129.97 167.27 94.34 167.27 25.07 232.73"/><polygon class="cls-2" points="7.8 186.91 7.8 220.58 64.22 167.27 28.59 167.27 7.8 186.91"/><path class="cls-9" d="M312.1,167.64v64.72H7.9V167.64H312.1m4-4H3.9v72.72H316.1V163.64Z"/><path class="cls-10" d="M316,164v72H4V164H316m4-4H0v80H320V160Z"/><rect class="cls-11" x="7.8" y="247.27" width="304.39" height="65.45"/><polygon class="cls-2" points="25.07 312.73 60.7 312.73 129.97 247.27 94.34 247.27 25.07 312.73"/><polygon class="cls-2" points="7.8 266.92 7.8 300.58 64.22 247.27 28.59 247.27 7.8 266.92"/><path class="cls-12" d="M312.1,247.64v64.72H7.9V247.64H312.1m4-4H3.9v72.72H316.1V243.64Z"/><path class="cls-13" d="M316,244v72H4V244H316m4-4H0v80H320V240Z"/><rect class="cls-14" x="7.8" y="327.27" width="304.39" height="65.45"/><polygon class="cls-2" points="25.07 392.73 60.7 392.73 129.97 327.27 94.34 327.27 25.07 392.73"/><polygon class="cls-2" points="7.8 346.92 7.8 380.58 64.22 327.27 28.59 327.27 7.8 346.92"/><path class="cls-15" d="M312.1,327.64v64.72H7.9V327.64H312.1m4-4H3.9v72.72H316.1V323.64Z"/><path class="cls-16" d="M316,324v72H4V324H316m4-4H0v80H320V320Z"/><rect class="cls-17" x="7.8" y="407.27" width="304.39" height="65.45"/><polygon class="cls-2" points="25.07 472.73 60.7 472.73 129.97 407.27 94.34 407.27 25.07 472.73"/><polygon class="cls-2" points="7.8 426.92 7.8 460.58 64.22 407.27 28.59 407.27 7.8 426.92"/><path class="cls-18" d="M312.1,407.64v64.72H7.9V407.64H312.1m4-4H3.9v72.72H316.1V403.64Z"/><path class="cls-19" d="M316,404v72H4V404H316m4-4H0v80H320V400Z"/><rect class="cls-20" x="320" y="-0.07" width="320" height="80"/><path class="cls-21" d="M632.1,7.64V72.36H327.9V7.64H632.1m4-4H323.9V76.36H636.1V3.64Z"/><rect class="cls-20" x="320" y="79.93" width="320" height="80"/><path class="cls-22" d="M632.1,87.64v64.72H327.9V87.64H632.1m4-4H323.9v72.72H636.1V83.64Z"/><rect class="cls-20" x="320" y="159.93" width="320" height="80"/><path class="cls-23" d="M632.1,167.64v64.72H327.9V167.64H632.1m4-4H323.9v72.72H636.1V163.64Z"/><rect class="cls-20" x="320" y="239.93" width="320" height="80"/><path class="cls-24" d="M632.1,247.64v64.72H327.9V247.64H632.1m4-4H323.9v72.72H636.1V243.64Z"/><rect class="cls-20" x="320" y="319.93" width="320" height="80"/><path class="cls-25" d="M632.1,327.64v64.72H327.9V327.64H632.1m4-4H323.9v72.72H636.1V323.64Z"/><rect class="cls-20" x="320" y="399.93" width="320" height="80"/><path class="cls-26" d="M632.1,407.64v64.72H327.9V407.64H632.1m4-4H323.9v72.72H636.1V403.64Z"/></svg>