<svg id="レイヤー_1" data-name="レイヤー 1" xmlns="http://www.w3.org/2000/svg" viewBox="0 0 700 400"><defs><style>.cls-1{fill:#ccf;}.cls-2,.cls-8{fill:#f7f7ff;}.cls-2,.cls-6{opacity:0.4;}.cls-3{fill:#17ffb6;}.cls-11,.cls-4,.cls-6{fill:#fff;}.cls-4{opacity:0.6;}.cls-5{opacity:0.2;}.cls-7{opacity:0.1;}.cls-11,.cls-8{opacity:0.8;}.cls-9{fill:#7979cf;}.cls-10{fill:#f2f2ff;}.cls-12{fill:#474759;}.cls-12,.cls-15{opacity:0.3;}.cls-13{fill:#d4d478;}.cls-14{fill:#ffff78;}.cls-15{fill:#464678;}.cls-16{fill:#1e8a00;}.cls-17{fill:#1797ff;}.cls-18{fill:#1745ff;}.cls-19{fill:#ff1768;}.cls-20{fill:#ff1739;}.cls-21{fill:#ffff8c;}.cls-22{fill:#ffff64;}.cls-23{fill:#ffad64;}.cls-24{fill:#ff7e37;}.cls-25{fill:#cf765f;}.cls-26{fill:#cf2900;}.cls-27{fill:#cfcfcf;}.cls-28{fill:#3b3b3b;}</style></defs><path class="cls-1" d="M100,51c-.31-11.52-22.56-20.81-50-20.81S.32,39.52,0,51H0V179.19H0C.32,190.71,22.57,200,50,200s49.68-9.29,50-20.81h0V51Z"/><ellipse class="cls-2" cx="50" cy="178.96" rx="50" ry="21.04"/><path class="cls-3" d="M91.49,72C91.24,62.74,72.76,55.29,50,55.29S8.76,62.74,8.51,72h0V174.58h0c.25,9.22,18.73,16.66,41.49,16.66s41.24-7.44,41.49-16.66h0V72Z"/><circle class="cls-4" cx="19.5" cy="149.46" r="4"/><circle class="cls-4" cx="27.5" cy="117.46" r="5"/><circle class="cls-4" cx="30.5" cy="173.46" r="6"/><circle class="cls-5" cx="71.5" cy="146.46" r="5"/><circle class="cls-5" cx="62.5" cy="93.46" r="5"/><circle class="cls-5" cx="79.5" cy="128.46" r="3"/><path class="cls-6" d="M5.5,188.54c3.76,3.09,9.28,5.73,16,7.7V68.56c-6.72-2-12.24-4.61-16-7.7Z"/><path class="cls-6" d="M31.5,198.51a110.78,110.78,0,0,0,13,1.36V72.19a108.63,108.63,0,0,1-13-1.37Z"/><path class="cls-7" d="M68.5,70.82V198.51C86.78,195.44,99.76,188,100,179.19h0V51.27C100,60.14,87,67.73,68.5,70.82Z"/><ellipse class="cls-8" cx="50" cy="51.27" rx="50" ry="21.04"/><path class="cls-9" d="M35.21,33.71V49.49h0c.09,3.41,6.68,6.16,14.79,6.16s14.7-2.75,14.79-6.16h0V33.71Z"/><path class="cls-1" d="M71.36,18.63C71.23,13.8,61.72,9.89,50,9.89S28.77,13.8,28.64,18.63h0v18h0c.13,4.83,9.64,8.74,21.36,8.74s21.23-3.91,21.36-8.74h0v-18Z"/><ellipse class="cls-10" cx="50" cy="18.73" rx="21.37" ry="8.84"/><path class="cls-11" d="M31.5,41a21.65,21.65,0,0,0,7,3V26.17a21.75,21.75,0,0,1-7-3Z"/><path class="cls-11" d="M40.5,44.47q1.44.3,3,.51V27.15q-1.56-.21-3-.51Z"/><path class="cls-12" d="M57.5,27V44.83c8-1.25,13.76-4.43,13.86-8.17h0V18.73C71.37,22.52,65.6,25.74,57.5,27Z"/><path class="cls-13" d="M67.33,7.09C67.23,3.17,59.51,0,50,0S32.77,3.17,32.67,7.09h0V17h0c.1,3.92,7.82,7.09,17.33,7.09S67.23,20.91,67.33,17h0V7.09Z"/><ellipse class="cls-14" cx="50" cy="7.17" rx="17.34" ry="7.17"/><path class="cls-11" d="M35.5,20.83a18.81,18.81,0,0,0,5,2.08V13.17a18.82,18.82,0,0,1-5-2.07Z"/><path class="cls-11" d="M42.5,23.37c.65.13,1.31.24,2,.34V14c-.69-.1-1.35-.21-2-.34Z"/><ellipse class="cls-13" cx="61" cy="12.26" rx="2.5" ry="2.36"/><ellipse class="cls-13" cx="41" cy="5.4" rx="2.5" ry="1.18"/><ellipse class="cls-13" cx="58" cy="5.17" rx="1.5" ry="0.95"/><path class="cls-15" d="M53.5,55.47c6.43-.66,11.21-3.08,11.29-6h0V42.93A38.33,38.33,0,0,1,53.5,45.27Z"/><path class="cls-1" d="M100,251c-.31-11.52-22.56-20.81-50-20.81S.32,239.52,0,251H0V379.19H0C.32,390.71,22.57,400,50,400s49.68-9.29,50-20.81h0V251Z"/><ellipse class="cls-2" cx="50" cy="378.96" rx="50" ry="21.04"/><path class="cls-16" d="M91.49,272c-.25-9.22-18.73-16.67-41.49-16.67S8.76,262.74,8.51,272h0V374.58h0c.25,9.22,18.73,16.66,41.49,16.66s41.24-7.44,41.49-16.66h0V272Z"/><circle class="cls-4" cx="19.5" cy="349.46" r="4"/><circle class="cls-4" cx="27.5" cy="317.46" r="5"/><circle class="cls-4" cx="30.5" cy="373.46" r="6"/><circle class="cls-5" cx="71.5" cy="346.46" r="5"/><circle class="cls-5" cx="62.5" cy="293.46" r="5"/><circle class="cls-5" cx="79.5" cy="328.46" r="3"/><path class="cls-6" d="M5.5,388.54c3.76,3.09,9.28,5.73,16,7.7V268.56c-6.72-2-12.24-4.61-16-7.7Z"/><path class="cls-6" d="M31.5,398.51a110.78,110.78,0,0,0,13,1.36V272.19a108.63,108.63,0,0,1-13-1.37Z"/><path class="cls-7" d="M68.5,270.82V398.51C86.78,395.44,99.76,388,100,379.19h0V251.27C100,260.14,87,267.73,68.5,270.82Z"/><ellipse class="cls-8" cx="50" cy="251.27" rx="50" ry="21.04"/><path class="cls-9" d="M35.21,233.71v15.78h0c.09,3.41,6.68,6.16,14.79,6.16s14.7-2.75,14.79-6.16h0V233.71Z"/><path class="cls-1" d="M71.36,218.63c-.13-4.83-9.64-8.74-21.36-8.74s-21.23,3.91-21.36,8.74h0v18h0c.13,4.83,9.64,8.74,21.36,8.74s21.23-3.91,21.36-8.74h0v-18Z"/><ellipse class="cls-10" cx="50" cy="218.73" rx="21.37" ry="8.84"/><path class="cls-11" d="M31.5,241a21.65,21.65,0,0,0,7,3V226.17a21.75,21.75,0,0,1-7-3Z"/><path class="cls-11" d="M40.5,244.47q1.44.3,3,.51V227.15q-1.56-.21-3-.51Z"/><path class="cls-12" d="M57.5,227v17.83c8-1.25,13.76-4.43,13.86-8.17h0V218.73C71.37,222.52,65.6,225.74,57.5,227Z"/><path class="cls-13" d="M67.33,207.09C67.23,203.17,59.51,200,50,200s-17.23,3.17-17.33,7.09h0V217h0c.1,3.92,7.82,7.09,17.33,7.09s17.23-3.17,17.33-7.09h0v-9.9Z"/><ellipse class="cls-14" cx="50" cy="207.17" rx="17.34" ry="7.17"/><path class="cls-11" d="M35.5,220.83a18.81,18.81,0,0,0,5,2.08v-9.74a18.82,18.82,0,0,1-5-2.07Z"/><path class="cls-11" d="M42.5,223.37c.65.13,1.31.24,2,.34V214c-.69-.1-1.35-.21-2-.34Z"/><ellipse class="cls-13" cx="61" cy="212.26" rx="2.5" ry="2.36"/><ellipse class="cls-13" cx="41" cy="205.4" rx="2.5" ry="1.18"/><ellipse class="cls-13" cx="58" cy="205.17" rx="1.5" ry="0.95"/><path class="cls-15" d="M53.5,255.47c6.43-.66,11.21-3.08,11.29-6h0v-6.56a38.33,38.33,0,0,1-11.29,2.34Z"/><path class="cls-1" d="M200,51c-.31-11.52-22.56-20.81-50-20.81S100.32,39.52,100,51h0V179.19h0c.31,11.52,22.56,20.81,50,20.81s49.68-9.29,50-20.81h0V51Z"/><ellipse class="cls-2" cx="150" cy="178.96" rx="50" ry="21.04"/><path class="cls-17" d="M191.49,72c-.25-9.22-18.73-16.67-41.49-16.67S108.76,62.74,108.51,72h0V174.58h0c.25,9.22,18.73,16.66,41.49,16.66s41.24-7.44,41.49-16.66h0V72Z"/><circle class="cls-4" cx="119.5" cy="149.46" r="4"/><circle class="cls-4" cx="127.5" cy="117.46" r="5"/><circle class="cls-4" cx="130.5" cy="173.46" r="6"/><circle class="cls-5" cx="171.5" cy="146.46" r="5"/><circle class="cls-5" cx="162.5" cy="93.46" r="5"/><circle class="cls-5" cx="179.5" cy="128.46" r="3"/><path class="cls-6" d="M105.5,188.54c3.76,3.09,9.28,5.73,16,7.7V68.56c-6.72-2-12.24-4.61-16-7.7Z"/><path class="cls-6" d="M131.5,198.51a110.78,110.78,0,0,0,13,1.36V72.19a108.63,108.63,0,0,1-13-1.37Z"/><path class="cls-7" d="M168.5,70.82V198.51c18.28-3.07,31.26-10.55,31.49-19.32h0V51.27C200,60.14,187,67.73,168.5,70.82Z"/><ellipse class="cls-8" cx="150" cy="51.27" rx="50" ry="21.04"/><path class="cls-9" d="M135.21,33.71V49.49h0c.09,3.41,6.68,6.16,14.79,6.16s14.7-2.75,14.79-6.16h0V33.71Z"/><path class="cls-1" d="M171.36,18.63c-.13-4.83-9.64-8.74-21.36-8.74s-21.23,3.91-21.36,8.74h0v18h0c.13,4.83,9.64,8.74,21.36,8.74s21.23-3.91,21.36-8.74h0v-18Z"/><ellipse class="cls-10" cx="150" cy="18.73" rx="21.37" ry="8.84"/><path class="cls-11" d="M131.5,41a21.65,21.65,0,0,0,7,3V26.17a21.75,21.75,0,0,1-7-3Z"/><path class="cls-11" d="M140.5,44.47q1.44.3,3,.51V27.15q-1.56-.21-3-.51Z"/><path class="cls-12" d="M157.5,27V44.83c8-1.25,13.76-4.43,13.86-8.17h0V18.73C171.37,22.52,165.6,25.74,157.5,27Z"/><path class="cls-13" d="M167.33,7.09C167.23,3.17,159.51,0,150,0s-17.23,3.17-17.33,7.09h0V17h0c.1,3.92,7.82,7.09,17.33,7.09s17.23-3.17,17.33-7.09h0V7.09Z"/><ellipse class="cls-14" cx="150" cy="7.17" rx="17.34" ry="7.17"/><path class="cls-11" d="M135.5,20.83a18.81,18.81,0,0,0,5,2.08V13.17a18.82,18.82,0,0,1-5-2.07Z"/><path class="cls-11" d="M142.5,23.37c.65.13,1.31.24,2,.34V14c-.69-.1-1.35-.21-2-.34Z"/><ellipse class="cls-13" cx="161" cy="12.26" rx="2.5" ry="2.36"/><ellipse class="cls-13" cx="141" cy="5.4" rx="2.5" ry="1.18"/><ellipse class="cls-13" cx="158" cy="5.17" rx="1.5" ry="0.95"/><path class="cls-15" d="M153.5,55.47c6.43-.66,11.21-3.08,11.29-6h0V42.93a38.33,38.33,0,0,1-11.29,2.34Z"/><path class="cls-1" d="M200,251c-.31-11.52-22.56-20.81-50-20.81s-49.68,9.29-50,20.81h0V379.19h0c.31,11.52,22.56,20.81,50,20.81s49.68-9.29,50-20.81h0V251Z"/><ellipse class="cls-2" cx="150" cy="378.96" rx="50" ry="21.04"/><path class="cls-18" d="M191.49,272c-.25-9.22-18.73-16.67-41.49-16.67s-41.24,7.45-41.49,16.67h0V374.58h0c.25,9.22,18.73,16.66,41.49,16.66s41.24-7.44,41.49-16.66h0V272Z"/><circle class="cls-4" cx="119.5" cy="349.46" r="4"/><circle class="cls-4" cx="127.5" cy="317.46" r="5"/><circle class="cls-4" cx="130.5" cy="373.46" r="6"/><circle class="cls-5" cx="171.5" cy="346.46" r="5"/><circle class="cls-5" cx="162.5" cy="293.46" r="5"/><circle class="cls-5" cx="179.5" cy="328.46" r="3"/><path class="cls-6" d="M105.5,388.54c3.76,3.09,9.28,5.73,16,7.7V268.56c-6.72-2-12.24-4.61-16-7.7Z"/><path class="cls-6" d="M131.5,398.51a110.78,110.78,0,0,0,13,1.36V272.19a108.63,108.63,0,0,1-13-1.37Z"/><path class="cls-7" d="M168.5,270.82V398.51c18.28-3.07,31.26-10.55,31.49-19.32h0V251.27C200,260.14,187,267.73,168.5,270.82Z"/><ellipse class="cls-8" cx="150" cy="251.27" rx="50" ry="21.04"/><path class="cls-9" d="M135.21,233.71v15.78h0c.09,3.41,6.68,6.16,14.79,6.16s14.7-2.75,14.79-6.16h0V233.71Z"/><path class="cls-1" d="M171.36,218.63c-.13-4.83-9.64-8.74-21.36-8.74s-21.23,3.91-21.36,8.74h0v18h0c.13,4.83,9.64,8.74,21.36,8.74s21.23-3.91,21.36-8.74h0v-18Z"/><ellipse class="cls-10" cx="150" cy="218.73" rx="21.37" ry="8.84"/><path class="cls-11" d="M131.5,241a21.65,21.65,0,0,0,7,3V226.17a21.75,21.75,0,0,1-7-3Z"/><path class="cls-11" d="M140.5,244.47q1.44.3,3,.51V227.15q-1.56-.21-3-.51Z"/><path class="cls-12" d="M157.5,227v17.83c8-1.25,13.76-4.43,13.86-8.17h0V218.73C171.37,222.52,165.6,225.74,157.5,227Z"/><path class="cls-13" d="M167.33,207.09c-.1-3.92-7.82-7.09-17.33-7.09s-17.23,3.17-17.33,7.09h0V217h0c.1,3.92,7.82,7.09,17.33,7.09s17.23-3.17,17.33-7.09h0v-9.9Z"/><ellipse class="cls-14" cx="150" cy="207.17" rx="17.34" ry="7.17"/><path class="cls-11" d="M135.5,220.83a18.81,18.81,0,0,0,5,2.08v-9.74a18.82,18.82,0,0,1-5-2.07Z"/><path class="cls-11" d="M142.5,223.37c.65.13,1.31.24,2,.34V214c-.69-.1-1.35-.21-2-.34Z"/><ellipse class="cls-13" cx="161" cy="212.26" rx="2.5" ry="2.36"/><ellipse class="cls-13" cx="141" cy="205.4" rx="2.5" ry="1.18"/><ellipse class="cls-13" cx="158" cy="205.17" rx="1.5" ry="0.95"/><path class="cls-15" d="M153.5,255.47c6.43-.66,11.21-3.08,11.29-6h0v-6.56a38.33,38.33,0,0,1-11.29,2.34Z"/><path class="cls-1" d="M300,51c-.31-11.52-22.56-20.81-50-20.81S200.32,39.52,200,51h0V179.19h0c.31,11.52,22.56,20.81,50,20.81s49.68-9.29,50-20.81h0V51Z"/><ellipse class="cls-2" cx="250" cy="178.96" rx="50" ry="21.04"/><path class="cls-19" d="M291.49,72c-.25-9.22-18.73-16.67-41.49-16.67S208.76,62.74,208.51,72h0V174.58h0c.25,9.22,18.73,16.66,41.49,16.66s41.24-7.44,41.49-16.66h0V72Z"/><circle class="cls-4" cx="219.5" cy="149.46" r="4"/><circle class="cls-4" cx="227.5" cy="117.46" r="5"/><circle class="cls-4" cx="230.5" cy="173.46" r="6"/><circle class="cls-5" cx="271.5" cy="146.46" r="5"/><circle class="cls-5" cx="262.5" cy="93.46" r="5"/><circle class="cls-5" cx="279.5" cy="128.46" r="3"/><path class="cls-6" d="M205.5,188.54c3.76,3.09,9.28,5.73,16,7.7V68.56c-6.72-2-12.24-4.61-16-7.7Z"/><path class="cls-6" d="M231.5,198.51a110.78,110.78,0,0,0,13,1.36V72.19a108.63,108.63,0,0,1-13-1.37Z"/><path class="cls-7" d="M268.5,70.82V198.51c18.28-3.07,31.26-10.55,31.49-19.32h0V51.27C300,60.14,287,67.73,268.5,70.82Z"/><ellipse class="cls-8" cx="250" cy="51.27" rx="50" ry="21.04"/><path class="cls-9" d="M235.21,33.71V49.49h0c.09,3.41,6.68,6.16,14.79,6.16s14.7-2.75,14.79-6.16h0V33.71Z"/><path class="cls-1" d="M271.36,18.63c-.13-4.83-9.64-8.74-21.36-8.74s-21.23,3.91-21.36,8.74h0v18h0c.13,4.83,9.64,8.74,21.36,8.74s21.23-3.91,21.36-8.74h0v-18Z"/><ellipse class="cls-10" cx="250" cy="18.73" rx="21.37" ry="8.84"/><path class="cls-11" d="M231.5,41a21.65,21.65,0,0,0,7,3V26.17a21.75,21.75,0,0,1-7-3Z"/><path class="cls-11" d="M240.5,44.47q1.44.3,3,.51V27.15q-1.56-.21-3-.51Z"/><path class="cls-12" d="M257.5,27V44.83c8-1.25,13.76-4.43,13.86-8.17h0V18.73C271.37,22.52,265.6,25.74,257.5,27Z"/><path class="cls-13" d="M267.33,7.09C267.23,3.17,259.51,0,250,0s-17.23,3.17-17.33,7.09h0V17h0c.1,3.92,7.82,7.09,17.33,7.09s17.23-3.17,17.33-7.09h0V7.09Z"/><ellipse class="cls-14" cx="250" cy="7.17" rx="17.34" ry="7.17"/><path class="cls-11" d="M235.5,20.83a18.81,18.81,0,0,0,5,2.08V13.17a18.82,18.82,0,0,1-5-2.07Z"/><path class="cls-11" d="M242.5,23.37c.65.13,1.31.24,2,.34V14c-.69-.1-1.35-.21-2-.34Z"/><ellipse class="cls-13" cx="261" cy="12.26" rx="2.5" ry="2.36"/><ellipse class="cls-13" cx="241" cy="5.4" rx="2.5" ry="1.18"/><ellipse class="cls-13" cx="258" cy="5.17" rx="1.5" ry="0.95"/><path class="cls-15" d="M253.5,55.47c6.43-.66,11.21-3.08,11.29-6h0V42.93a38.33,38.33,0,0,1-11.29,2.34Z"/><path class="cls-1" d="M300,251c-.31-11.52-22.56-20.81-50-20.81s-49.68,9.29-50,20.81h0V379.19h0c.31,11.52,22.56,20.81,50,20.81s49.68-9.29,50-20.81h0V251Z"/><ellipse class="cls-2" cx="250" cy="378.96" rx="50" ry="21.04"/><path class="cls-20" d="M291.49,272c-.25-9.22-18.73-16.67-41.49-16.67s-41.24,7.45-41.49,16.67h0V374.58h0c.25,9.22,18.73,16.66,41.49,16.66s41.24-7.44,41.49-16.66h0V272Z"/><circle class="cls-4" cx="219.5" cy="349.46" r="4"/><circle class="cls-4" cx="227.5" cy="317.46" r="5"/><circle class="cls-4" cx="230.5" cy="373.46" r="6"/><circle class="cls-5" cx="271.5" cy="346.46" r="5"/><circle class="cls-5" cx="262.5" cy="293.46" r="5"/><circle class="cls-5" cx="279.5" cy="328.46" r="3"/><path class="cls-6" d="M205.5,388.54c3.76,3.09,9.28,5.73,16,7.7V268.56c-6.72-2-12.24-4.61-16-7.7Z"/><path class="cls-6" d="M231.5,398.51a110.78,110.78,0,0,0,13,1.36V272.19a108.63,108.63,0,0,1-13-1.37Z"/><path class="cls-7" d="M268.5,270.82V398.51c18.28-3.07,31.26-10.55,31.49-19.32h0V251.27C300,260.14,287,267.73,268.5,270.82Z"/><ellipse class="cls-8" cx="250" cy="251.27" rx="50" ry="21.04"/><path class="cls-9" d="M235.21,233.71v15.78h0c.09,3.41,6.68,6.16,14.79,6.16s14.7-2.75,14.79-6.16h0V233.71Z"/><path class="cls-1" d="M271.36,218.63c-.13-4.83-9.64-8.74-21.36-8.74s-21.23,3.91-21.36,8.74h0v18h0c.13,4.83,9.64,8.74,21.36,8.74s21.23-3.91,21.36-8.74h0v-18Z"/><ellipse class="cls-10" cx="250" cy="218.73" rx="21.37" ry="8.84"/><path class="cls-11" d="M231.5,241a21.65,21.65,0,0,0,7,3V226.17a21.75,21.75,0,0,1-7-3Z"/><path class="cls-11" d="M240.5,244.47q1.44.3,3,.51V227.15q-1.56-.21-3-.51Z"/><path class="cls-12" d="M257.5,227v17.83c8-1.25,13.76-4.43,13.86-8.17h0V218.73C271.37,222.52,265.6,225.74,257.5,227Z"/><path class="cls-13" d="M267.33,207.09c-.1-3.92-7.82-7.09-17.33-7.09s-17.23,3.17-17.33,7.09h0V217h0c.1,3.92,7.82,7.09,17.33,7.09s17.23-3.17,17.33-7.09h0v-9.9Z"/><ellipse class="cls-14" cx="250" cy="207.17" rx="17.34" ry="7.17"/><path class="cls-11" d="M235.5,220.83a18.81,18.81,0,0,0,5,2.08v-9.74a18.82,18.82,0,0,1-5-2.07Z"/><path class="cls-11" d="M242.5,223.37c.65.13,1.31.24,2,.34V214c-.69-.1-1.35-.21-2-.34Z"/><ellipse class="cls-13" cx="261" cy="212.26" rx="2.5" ry="2.36"/><ellipse class="cls-13" cx="241" cy="205.4" rx="2.5" ry="1.18"/><ellipse class="cls-13" cx="258" cy="205.17" rx="1.5" ry="0.95"/><path class="cls-15" d="M253.5,255.47c6.43-.66,11.21-3.08,11.29-6h0v-6.56a38.33,38.33,0,0,1-11.29,2.34Z"/><path class="cls-1" d="M400,51c-.31-11.52-22.56-20.81-50-20.81S300.32,39.52,300,51h0V179.19h0c.31,11.52,22.56,20.81,50,20.81s49.68-9.29,50-20.81h0V51Z"/><ellipse class="cls-2" cx="350" cy="178.96" rx="50" ry="21.04"/><path class="cls-21" d="M391.49,72c-.25-9.22-18.73-16.67-41.49-16.67S308.76,62.74,308.51,72h0V174.58h0c.25,9.22,18.73,16.66,41.49,16.66s41.24-7.44,41.49-16.66h0V72Z"/><circle class="cls-4" cx="319.5" cy="149.46" r="4"/><circle class="cls-4" cx="327.5" cy="117.46" r="5"/><circle class="cls-4" cx="330.5" cy="173.46" r="6"/><circle class="cls-5" cx="371.5" cy="146.46" r="5"/><circle class="cls-5" cx="362.5" cy="93.46" r="5"/><circle class="cls-5" cx="379.5" cy="128.46" r="3"/><path class="cls-6" d="M305.5,188.54c3.76,3.09,9.28,5.73,16,7.7V68.56c-6.72-2-12.24-4.61-16-7.7Z"/><path class="cls-6" d="M331.5,198.51a110.78,110.78,0,0,0,13,1.36V72.19a108.63,108.63,0,0,1-13-1.37Z"/><path class="cls-7" d="M368.5,70.82V198.51c18.28-3.07,31.26-10.55,31.49-19.32h0V51.27C400,60.14,387,67.73,368.5,70.82Z"/><ellipse class="cls-8" cx="350" cy="51.27" rx="50" ry="21.04"/><path class="cls-9" d="M335.21,33.71V49.49h0c.09,3.41,6.68,6.16,14.79,6.16s14.7-2.75,14.79-6.16h0V33.71Z"/><path class="cls-1" d="M371.36,18.63c-.13-4.83-9.64-8.74-21.36-8.74s-21.23,3.91-21.36,8.74h0v18h0c.13,4.83,9.64,8.74,21.36,8.74s21.23-3.91,21.36-8.74h0v-18Z"/><ellipse class="cls-10" cx="350" cy="18.73" rx="21.37" ry="8.84"/><path class="cls-11" d="M331.5,41a21.65,21.65,0,0,0,7,3V26.17a21.75,21.75,0,0,1-7-3Z"/><path class="cls-11" d="M340.5,44.47q1.44.3,3,.51V27.15q-1.56-.21-3-.51Z"/><path class="cls-12" d="M357.5,27V44.83c8-1.25,13.76-4.43,13.86-8.17h0V18.73C371.37,22.52,365.6,25.74,357.5,27Z"/><path class="cls-13" d="M367.33,7.09C367.23,3.17,359.51,0,350,0s-17.23,3.17-17.33,7.09h0V17h0c.1,3.92,7.82,7.09,17.33,7.09s17.23-3.17,17.33-7.09h0V7.09Z"/><ellipse class="cls-14" cx="350" cy="7.17" rx="17.34" ry="7.17"/><path class="cls-11" d="M335.5,20.83a18.81,18.81,0,0,0,5,2.08V13.17a18.82,18.82,0,0,1-5-2.07Z"/><path class="cls-11" d="M342.5,23.37c.65.13,1.31.24,2,.34V14c-.69-.1-1.35-.21-2-.34Z"/><ellipse class="cls-13" cx="361" cy="12.26" rx="2.5" ry="2.36"/><ellipse class="cls-13" cx="341" cy="5.4" rx="2.5" ry="1.18"/><ellipse class="cls-13" cx="358" cy="5.17" rx="1.5" ry="0.95"/><path class="cls-15" d="M353.5,55.47c6.43-.66,11.21-3.08,11.29-6h0V42.93a38.33,38.33,0,0,1-11.29,2.34Z"/><path class="cls-1" d="M400,251c-.31-11.52-22.56-20.81-50-20.81s-49.68,9.29-50,20.81h0V379.19h0c.31,11.52,22.56,20.81,50,20.81s49.68-9.29,50-20.81h0V251Z"/><ellipse class="cls-2" cx="350" cy="378.96" rx="50" ry="21.04"/><path class="cls-22" d="M391.49,272c-.25-9.22-18.73-16.67-41.49-16.67s-41.24,7.45-41.49,16.67h0V374.58h0c.25,9.22,18.73,16.66,41.49,16.66s41.24-7.44,41.49-16.66h0V272Z"/><circle class="cls-4" cx="319.5" cy="349.46" r="4"/><circle class="cls-4" cx="327.5" cy="317.46" r="5"/><circle class="cls-4" cx="330.5" cy="373.46" r="6"/><circle class="cls-5" cx="371.5" cy="346.46" r="5"/><circle class="cls-5" cx="362.5" cy="293.46" r="5"/><circle class="cls-5" cx="379.5" cy="328.46" r="3"/><path class="cls-6" d="M305.5,388.54c3.76,3.09,9.28,5.73,16,7.7V268.56c-6.72-2-12.24-4.61-16-7.7Z"/><path class="cls-6" d="M331.5,398.51a110.78,110.78,0,0,0,13,1.36V272.19a108.63,108.63,0,0,1-13-1.37Z"/><path class="cls-7" d="M368.5,270.82V398.51c18.28-3.07,31.26-10.55,31.49-19.32h0V251.27C400,260.14,387,267.73,368.5,270.82Z"/><ellipse class="cls-8" cx="350" cy="251.27" rx="50" ry="21.04"/><path class="cls-9" d="M335.21,233.71v15.78h0c.09,3.41,6.68,6.16,14.79,6.16s14.7-2.75,14.79-6.16h0V233.71Z"/><path class="cls-1" d="M371.36,218.63c-.13-4.83-9.64-8.74-21.36-8.74s-21.23,3.91-21.36,8.74h0v18h0c.13,4.83,9.64,8.74,21.36,8.74s21.23-3.91,21.36-8.74h0v-18Z"/><ellipse class="cls-10" cx="350" cy="218.73" rx="21.37" ry="8.84"/><path class="cls-11" d="M331.5,241a21.65,21.65,0,0,0,7,3V226.17a21.75,21.75,0,0,1-7-3Z"/><path class="cls-11" d="M340.5,244.47q1.44.3,3,.51V227.15q-1.56-.21-3-.51Z"/><path class="cls-12" d="M357.5,227v17.83c8-1.25,13.76-4.43,13.86-8.17h0V218.73C371.37,222.52,365.6,225.74,357.5,227Z"/><path class="cls-13" d="M367.33,207.09c-.1-3.92-7.82-7.09-17.33-7.09s-17.23,3.17-17.33,7.09h0V217h0c.1,3.92,7.82,7.09,17.33,7.09s17.23-3.17,17.33-7.09h0v-9.9Z"/><ellipse class="cls-14" cx="350" cy="207.17" rx="17.34" ry="7.17"/><path class="cls-11" d="M335.5,220.83a18.81,18.81,0,0,0,5,2.08v-9.74a18.82,18.82,0,0,1-5-2.07Z"/><path class="cls-11" d="M342.5,223.37c.65.13,1.31.24,2,.34V214c-.69-.1-1.35-.21-2-.34Z"/><ellipse class="cls-13" cx="361" cy="212.26" rx="2.5" ry="2.36"/><ellipse class="cls-13" cx="341" cy="205.4" rx="2.5" ry="1.18"/><ellipse class="cls-13" cx="358" cy="205.17" rx="1.5" ry="0.95"/><path class="cls-15" d="M353.5,255.47c6.43-.66,11.21-3.08,11.29-6h0v-6.56a38.33,38.33,0,0,1-11.29,2.34Z"/><path class="cls-1" d="M500,51c-.31-11.52-22.56-20.81-50-20.81S400.32,39.52,400,51h0V179.19h0c.31,11.52,22.56,20.81,50,20.81s49.68-9.29,50-20.81h0V51Z"/><ellipse class="cls-2" cx="450" cy="178.96" rx="50" ry="21.04"/><path class="cls-23" d="M491.49,72c-.25-9.22-18.73-16.67-41.49-16.67S408.76,62.74,408.51,72h0V174.58h0c.25,9.22,18.73,16.66,41.49,16.66s41.24-7.44,41.49-16.66h0V72Z"/><circle class="cls-4" cx="419.5" cy="149.46" r="4"/><circle class="cls-4" cx="427.5" cy="117.46" r="5"/><circle class="cls-4" cx="430.5" cy="173.46" r="6"/><circle class="cls-5" cx="471.5" cy="146.46" r="5"/><circle class="cls-5" cx="462.5" cy="93.46" r="5"/><circle class="cls-5" cx="479.5" cy="128.46" r="3"/><path class="cls-6" d="M405.5,188.54c3.76,3.09,9.28,5.73,16,7.7V68.56c-6.72-2-12.24-4.61-16-7.7Z"/><path class="cls-6" d="M431.5,198.51a110.78,110.78,0,0,0,13,1.36V72.19a108.63,108.63,0,0,1-13-1.37Z"/><path class="cls-7" d="M468.5,70.82V198.51c18.28-3.07,31.26-10.55,31.49-19.32h0V51.27C500,60.14,487,67.73,468.5,70.82Z"/><ellipse class="cls-8" cx="450" cy="51.27" rx="50" ry="21.04"/><path class="cls-9" d="M435.21,33.71V49.49h0c.09,3.41,6.68,6.16,14.79,6.16s14.7-2.75,14.79-6.16h0V33.71Z"/><path class="cls-1" d="M471.36,18.63c-.13-4.83-9.64-8.74-21.36-8.74s-21.23,3.91-21.36,8.74h0v18h0c.13,4.83,9.64,8.74,21.36,8.74s21.23-3.91,21.36-8.74h0v-18Z"/><ellipse class="cls-10" cx="450" cy="18.73" rx="21.37" ry="8.84"/><path class="cls-11" d="M431.5,41a21.65,21.65,0,0,0,7,3V26.17a21.75,21.75,0,0,1-7-3Z"/><path class="cls-11" d="M440.5,44.47q1.44.3,3,.51V27.15q-1.56-.21-3-.51Z"/><path class="cls-12" d="M457.5,27V44.83c8-1.25,13.76-4.43,13.86-8.17h0V18.73C471.37,22.52,465.6,25.74,457.5,27Z"/><path class="cls-13" d="M467.33,7.09C467.23,3.17,459.51,0,450,0s-17.23,3.17-17.33,7.09h0V17h0c.1,3.92,7.82,7.09,17.33,7.09s17.23-3.17,17.33-7.09h0V7.09Z"/><ellipse class="cls-14" cx="450" cy="7.17" rx="17.34" ry="7.17"/><path class="cls-11" d="M435.5,20.83a18.81,18.81,0,0,0,5,2.08V13.17a18.82,18.82,0,0,1-5-2.07Z"/><path class="cls-11" d="M442.5,23.37c.65.13,1.31.24,2,.34V14c-.69-.1-1.35-.21-2-.34Z"/><ellipse class="cls-13" cx="461" cy="12.26" rx="2.5" ry="2.36"/><ellipse class="cls-13" cx="441" cy="5.4" rx="2.5" ry="1.18"/><ellipse class="cls-13" cx="458" cy="5.17" rx="1.5" ry="0.95"/><path class="cls-15" d="M453.5,55.47c6.43-.66,11.21-3.08,11.29-6h0V42.93a38.33,38.33,0,0,1-11.29,2.34Z"/><path class="cls-1" d="M500,251c-.31-11.52-22.56-20.81-50-20.81s-49.68,9.29-50,20.81h0V379.19h0c.31,11.52,22.56,20.81,50,20.81s49.68-9.29,50-20.81h0V251Z"/><ellipse class="cls-2" cx="450" cy="378.96" rx="50" ry="21.04"/><path class="cls-24" d="M491.49,272c-.25-9.22-18.73-16.67-41.49-16.67s-41.24,7.45-41.49,16.67h0V374.58h0c.25,9.22,18.73,16.66,41.49,16.66s41.24-7.44,41.49-16.66h0V272Z"/><circle class="cls-4" cx="419.5" cy="349.46" r="4"/><circle class="cls-4" cx="427.5" cy="317.46" r="5"/><circle class="cls-4" cx="430.5" cy="373.46" r="6"/><circle class="cls-5" cx="471.5" cy="346.46" r="5"/><circle class="cls-5" cx="462.5" cy="293.46" r="5"/><circle class="cls-5" cx="479.5" cy="328.46" r="3"/><path class="cls-6" d="M405.5,388.54c3.76,3.09,9.28,5.73,16,7.7V268.56c-6.72-2-12.24-4.61-16-7.7Z"/><path class="cls-6" d="M431.5,398.51a110.78,110.78,0,0,0,13,1.36V272.19a108.63,108.63,0,0,1-13-1.37Z"/><path class="cls-7" d="M468.5,270.82V398.51c18.28-3.07,31.26-10.55,31.49-19.32h0V251.27C500,260.14,487,267.73,468.5,270.82Z"/><ellipse class="cls-8" cx="450" cy="251.27" rx="50" ry="21.04"/><path class="cls-9" d="M435.21,233.71v15.78h0c.09,3.41,6.68,6.16,14.79,6.16s14.7-2.75,14.79-6.16h0V233.71Z"/><path class="cls-1" d="M471.36,218.63c-.13-4.83-9.64-8.74-21.36-8.74s-21.23,3.91-21.36,8.74h0v18h0c.13,4.83,9.64,8.74,21.36,8.74s21.23-3.91,21.36-8.74h0v-18Z"/><ellipse class="cls-10" cx="450" cy="218.73" rx="21.37" ry="8.84"/><path class="cls-11" d="M431.5,241a21.65,21.65,0,0,0,7,3V226.17a21.75,21.75,0,0,1-7-3Z"/><path class="cls-11" d="M440.5,244.47q1.44.3,3,.51V227.15q-1.56-.21-3-.51Z"/><path class="cls-12" d="M457.5,227v17.83c8-1.25,13.76-4.43,13.86-8.17h0V218.73C471.37,222.52,465.6,225.74,457.5,227Z"/><path class="cls-13" d="M467.33,207.09c-.1-3.92-7.82-7.09-17.33-7.09s-17.23,3.17-17.33,7.09h0V217h0c.1,3.92,7.82,7.09,17.33,7.09s17.23-3.17,17.33-7.09h0v-9.9Z"/><ellipse class="cls-14" cx="450" cy="207.17" rx="17.34" ry="7.17"/><path class="cls-11" d="M435.5,220.83a18.81,18.81,0,0,0,5,2.08v-9.74a18.82,18.82,0,0,1-5-2.07Z"/><path class="cls-11" d="M442.5,223.37c.65.13,1.31.24,2,.34V214c-.69-.1-1.35-.21-2-.34Z"/><ellipse class="cls-13" cx="461" cy="212.26" rx="2.5" ry="2.36"/><ellipse class="cls-13" cx="441" cy="205.4" rx="2.5" ry="1.18"/><ellipse class="cls-13" cx="458" cy="205.17" rx="1.5" ry="0.95"/><path class="cls-15" d="M453.5,255.47c6.43-.66,11.21-3.08,11.29-6h0v-6.56a38.33,38.33,0,0,1-11.29,2.34Z"/><path class="cls-1" d="M600,51c-.31-11.52-22.56-20.81-50-20.81S500.32,39.52,500,51h0V179.19h0c.31,11.52,22.56,20.81,50,20.81s49.68-9.29,50-20.81h0V51Z"/><ellipse class="cls-2" cx="550" cy="178.96" rx="50" ry="21.04"/><path class="cls-25" d="M591.49,72c-.25-9.22-18.73-16.67-41.49-16.67S508.76,62.74,508.51,72h0V174.58h0c.25,9.22,18.73,16.66,41.49,16.66s41.24-7.44,41.49-16.66h0V72Z"/><circle class="cls-4" cx="519.5" cy="149.46" r="4"/><circle class="cls-4" cx="527.5" cy="117.46" r="5"/><circle class="cls-4" cx="530.5" cy="173.46" r="6"/><circle class="cls-5" cx="571.5" cy="146.46" r="5"/><circle class="cls-5" cx="562.5" cy="93.46" r="5"/><circle class="cls-5" cx="579.5" cy="128.46" r="3"/><path class="cls-6" d="M505.5,188.54c3.76,3.09,9.28,5.73,16,7.7V68.56c-6.72-2-12.24-4.61-16-7.7Z"/><path class="cls-6" d="M531.5,198.51a110.78,110.78,0,0,0,13,1.36V72.19a108.63,108.63,0,0,1-13-1.37Z"/><path class="cls-7" d="M568.5,70.82V198.51c18.28-3.07,31.26-10.55,31.49-19.32h0V51.27C600,60.14,587,67.73,568.5,70.82Z"/><ellipse class="cls-8" cx="550" cy="51.27" rx="50" ry="21.04"/><path class="cls-9" d="M535.21,33.71V49.49h0c.09,3.41,6.68,6.16,14.79,6.16s14.7-2.75,14.79-6.16h0V33.71Z"/><path class="cls-1" d="M571.36,18.63c-.13-4.83-9.64-8.74-21.36-8.74s-21.23,3.91-21.36,8.74h0v18h0c.13,4.83,9.64,8.74,21.36,8.74s21.23-3.91,21.36-8.74h0v-18Z"/><ellipse class="cls-10" cx="550" cy="18.73" rx="21.37" ry="8.84"/><path class="cls-11" d="M531.5,41a21.65,21.65,0,0,0,7,3V26.17a21.75,21.75,0,0,1-7-3Z"/><path class="cls-11" d="M540.5,44.47q1.44.3,3,.51V27.15q-1.56-.21-3-.51Z"/><path class="cls-12" d="M557.5,27V44.83c8-1.25,13.76-4.43,13.86-8.17h0V18.73C571.37,22.52,565.6,25.74,557.5,27Z"/><path class="cls-13" d="M567.33,7.09C567.23,3.17,559.51,0,550,0s-17.23,3.17-17.33,7.09h0V17h0c.1,3.92,7.82,7.09,17.33,7.09s17.23-3.17,17.33-7.09h0V7.09Z"/><ellipse class="cls-14" cx="550" cy="7.17" rx="17.34" ry="7.17"/><path class="cls-11" d="M535.5,20.83a18.81,18.81,0,0,0,5,2.08V13.17a18.82,18.82,0,0,1-5-2.07Z"/><path class="cls-11" d="M542.5,23.37c.65.13,1.31.24,2,.34V14c-.69-.1-1.35-.21-2-.34Z"/><ellipse class="cls-13" cx="561" cy="12.26" rx="2.5" ry="2.36"/><ellipse class="cls-13" cx="541" cy="5.4" rx="2.5" ry="1.18"/><ellipse class="cls-13" cx="558" cy="5.17" rx="1.5" ry="0.95"/><path class="cls-15" d="M553.5,55.47c6.43-.66,11.21-3.08,11.29-6h0V42.93a38.33,38.33,0,0,1-11.29,2.34Z"/><path class="cls-1" d="M600,251c-.31-11.52-22.56-20.81-50-20.81s-49.68,9.29-50,20.81h0V379.19h0c.31,11.52,22.56,20.81,50,20.81s49.68-9.29,50-20.81h0V251Z"/><ellipse class="cls-2" cx="550" cy="378.96" rx="50" ry="21.04"/><path class="cls-26" d="M591.49,272c-.25-9.22-18.73-16.67-41.49-16.67s-41.24,7.45-41.49,16.67h0V374.58h0c.25,9.22,18.73,16.66,41.49,16.66s41.24-7.44,41.49-16.66h0V272Z"/><circle class="cls-4" cx="519.5" cy="349.46" r="4"/><circle class="cls-4" cx="527.5" cy="317.46" r="5"/><circle class="cls-4" cx="530.5" cy="373.46" r="6"/><circle class="cls-5" cx="571.5" cy="346.46" r="5"/><circle class="cls-5" cx="562.5" cy="293.46" r="5"/><circle class="cls-5" cx="579.5" cy="328.46" r="3"/><path class="cls-6" d="M505.5,388.54c3.76,3.09,9.28,5.73,16,7.7V268.56c-6.72-2-12.24-4.61-16-7.7Z"/><path class="cls-6" d="M531.5,398.51a110.78,110.78,0,0,0,13,1.36V272.19a108.63,108.63,0,0,1-13-1.37Z"/><path class="cls-7" d="M568.5,270.82V398.51c18.28-3.07,31.26-10.55,31.49-19.32h0V251.27C600,260.14,587,267.73,568.5,270.82Z"/><ellipse class="cls-8" cx="550" cy="251.27" rx="50" ry="21.04"/><path class="cls-9" d="M535.21,233.71v15.78h0c.09,3.41,6.68,6.16,14.79,6.16s14.7-2.75,14.79-6.16h0V233.71Z"/><path class="cls-1" d="M571.36,218.63c-.13-4.83-9.64-8.74-21.36-8.74s-21.23,3.91-21.36,8.74h0v18h0c.13,4.83,9.64,8.74,21.36,8.74s21.23-3.91,21.36-8.74h0v-18Z"/><ellipse class="cls-10" cx="550" cy="218.73" rx="21.37" ry="8.84"/><path class="cls-11" d="M531.5,241a21.65,21.65,0,0,0,7,3V226.17a21.75,21.75,0,0,1-7-3Z"/><path class="cls-11" d="M540.5,244.47q1.44.3,3,.51V227.15q-1.56-.21-3-.51Z"/><path class="cls-12" d="M557.5,227v17.83c8-1.25,13.76-4.43,13.86-8.17h0V218.73C571.37,222.52,565.6,225.74,557.5,227Z"/><path class="cls-13" d="M567.33,207.09c-.1-3.92-7.82-7.09-17.33-7.09s-17.23,3.17-17.33,7.09h0V217h0c.1,3.92,7.82,7.09,17.33,7.09s17.23-3.17,17.33-7.09h0v-9.9Z"/><ellipse class="cls-14" cx="550" cy="207.17" rx="17.34" ry="7.17"/><path class="cls-11" d="M535.5,220.83a18.81,18.81,0,0,0,5,2.08v-9.74a18.82,18.82,0,0,1-5-2.07Z"/><path class="cls-11" d="M542.5,223.37c.65.13,1.31.24,2,.34V214c-.69-.1-1.35-.21-2-.34Z"/><ellipse class="cls-13" cx="561" cy="212.26" rx="2.5" ry="2.36"/><ellipse class="cls-13" cx="541" cy="205.4" rx="2.5" ry="1.18"/><ellipse class="cls-13" cx="558" cy="205.17" rx="1.5" ry="0.95"/><path class="cls-15" d="M553.5,255.47c6.43-.66,11.21-3.08,11.29-6h0v-6.56a38.33,38.33,0,0,1-11.29,2.34Z"/><path class="cls-1" d="M700,51c-.31-11.52-22.56-20.81-50-20.81S600.32,39.52,600,51h0V179.19h0c.31,11.52,22.56,20.81,50,20.81s49.68-9.29,50-20.81h0V51Z"/><ellipse class="cls-2" cx="650" cy="178.96" rx="50" ry="21.04"/><path class="cls-27" d="M691.49,72c-.25-9.22-18.73-16.67-41.49-16.67S608.76,62.74,608.51,72h0V174.58h0c.25,9.22,18.73,16.66,41.49,16.66s41.24-7.44,41.49-16.66h0V72Z"/><circle class="cls-4" cx="619.5" cy="149.46" r="4"/><circle class="cls-4" cx="627.5" cy="117.46" r="5"/><circle class="cls-4" cx="630.5" cy="173.46" r="6"/><circle class="cls-5" cx="671.5" cy="146.46" r="5"/><circle class="cls-5" cx="662.5" cy="93.46" r="5"/><circle class="cls-5" cx="679.5" cy="128.46" r="3"/><path class="cls-6" d="M605.5,188.54c3.76,3.09,9.28,5.73,16,7.7V68.56c-6.72-2-12.24-4.61-16-7.7Z"/><path class="cls-6" d="M631.5,198.51a110.78,110.78,0,0,0,13,1.36V72.19a108.63,108.63,0,0,1-13-1.37Z"/><path class="cls-7" d="M668.5,70.82V198.51c18.28-3.07,31.26-10.55,31.49-19.32h0V51.27C700,60.14,687,67.73,668.5,70.82Z"/><ellipse class="cls-8" cx="650" cy="51.27" rx="50" ry="21.04"/><path class="cls-9" d="M635.21,33.71V49.49h0c.09,3.41,6.68,6.16,14.79,6.16s14.7-2.75,14.79-6.16h0V33.71Z"/><path class="cls-1" d="M671.36,18.63c-.13-4.83-9.64-8.74-21.36-8.74s-21.23,3.91-21.36,8.74h0v18h0c.13,4.83,9.64,8.74,21.36,8.74s21.23-3.91,21.36-8.74h0v-18Z"/><ellipse class="cls-10" cx="650" cy="18.73" rx="21.37" ry="8.84"/><path class="cls-11" d="M631.5,41a21.65,21.65,0,0,0,7,3V26.17a21.75,21.75,0,0,1-7-3Z"/><path class="cls-11" d="M640.5,44.47q1.44.3,3,.51V27.15q-1.56-.21-3-.51Z"/><path class="cls-12" d="M657.5,27V44.83c8-1.25,13.76-4.43,13.86-8.17h0V18.73C671.37,22.52,665.6,25.74,657.5,27Z"/><path class="cls-13" d="M667.33,7.09C667.23,3.17,659.51,0,650,0s-17.23,3.17-17.33,7.09h0V17h0c.1,3.92,7.82,7.09,17.33,7.09s17.23-3.17,17.33-7.09h0V7.09Z"/><ellipse class="cls-14" cx="650" cy="7.17" rx="17.34" ry="7.17"/><path class="cls-11" d="M635.5,20.83a18.81,18.81,0,0,0,5,2.08V13.17a18.82,18.82,0,0,1-5-2.07Z"/><path class="cls-11" d="M642.5,23.37c.65.13,1.31.24,2,.34V14c-.69-.1-1.35-.21-2-.34Z"/><ellipse class="cls-13" cx="661" cy="12.26" rx="2.5" ry="2.36"/><ellipse class="cls-13" cx="641" cy="5.4" rx="2.5" ry="1.18"/><ellipse class="cls-13" cx="658" cy="5.17" rx="1.5" ry="0.95"/><path class="cls-15" d="M653.5,55.47c6.43-.66,11.21-3.08,11.29-6h0V42.93a38.33,38.33,0,0,1-11.29,2.34Z"/><path class="cls-1" d="M700,251c-.31-11.52-22.56-20.81-50-20.81s-49.68,9.29-50,20.81h0V379.19h0c.31,11.52,22.56,20.81,50,20.81s49.68-9.29,50-20.81h0V251Z"/><ellipse class="cls-2" cx="650" cy="378.96" rx="50" ry="21.04"/><path class="cls-28" d="M691.49,272c-.25-9.22-18.73-16.67-41.49-16.67s-41.24,7.45-41.49,16.67h0V374.58h0c.25,9.22,18.73,16.66,41.49,16.66s41.24-7.44,41.49-16.66h0V272Z"/><circle class="cls-4" cx="619.5" cy="349.46" r="4"/><circle class="cls-4" cx="627.5" cy="317.46" r="5"/><circle class="cls-4" cx="630.5" cy="373.46" r="6"/><circle class="cls-5" cx="671.5" cy="346.46" r="5"/><circle class="cls-5" cx="662.5" cy="293.46" r="5"/><circle class="cls-5" cx="679.5" cy="328.46" r="3"/><path class="cls-6" d="M605.5,388.54c3.76,3.09,9.28,5.73,16,7.7V268.56c-6.72-2-12.24-4.61-16-7.7Z"/><path class="cls-6" d="M631.5,398.51a110.78,110.78,0,0,0,13,1.36V272.19a108.63,108.63,0,0,1-13-1.37Z"/><path class="cls-7" d="M668.5,270.82V398.51c18.28-3.07,31.26-10.55,31.49-19.32h0V251.27C700,260.14,687,267.73,668.5,270.82Z"/><ellipse class="cls-8" cx="650" cy="251.27" rx="50" ry="21.04"/><path class="cls-9" d="M635.21,233.71v15.78h0c.09,3.41,6.68,6.16,14.79,6.16s14.7-2.75,14.79-6.16h0V233.71Z"/><path class="cls-1" d="M671.36,218.63c-.13-4.83-9.64-8.74-21.36-8.74s-21.23,3.91-21.36,8.74h0v18h0c.13,4.83,9.64,8.74,21.36,8.74s21.23-3.91,21.36-8.74h0v-18Z"/><ellipse class="cls-10" cx="650" cy="218.73" rx="21.37" ry="8.84"/><path class="cls-11" d="M631.5,241a21.65,21.65,0,0,0,7,3V226.17a21.75,21.75,0,0,1-7-3Z"/><path class="cls-11" d="M640.5,244.47q1.44.3,3,.51V227.15q-1.56-.21-3-.51Z"/><path class="cls-12" d="M657.5,227v17.83c8-1.25,13.76-4.43,13.86-8.17h0V218.73C671.37,222.52,665.6,225.74,657.5,227Z"/><path class="cls-13" d="M667.33,207.09c-.1-3.92-7.82-7.09-17.33-7.09s-17.23,3.17-17.33,7.09h0V217h0c.1,3.92,7.82,7.09,17.33,7.09s17.23-3.17,17.33-7.09h0v-9.9Z"/><ellipse class="cls-14" cx="650" cy="207.17" rx="17.34" ry="7.17"/><path class="cls-11" d="M635.5,220.83a18.81,18.81,0,0,0,5,2.08v-9.74a18.82,18.82,0,0,1-5-2.07Z"/><path class="cls-11" d="M642.5,223.37c.65.13,1.31.24,2,.34V214c-.69-.1-1.35-.21-2-.34Z"/><ellipse class="cls-13" cx="661" cy="212.26" rx="2.5" ry="2.36"/><ellipse class="cls-13" cx="641" cy="205.4" rx="2.5" ry="1.18"/><ellipse class="cls-13" cx="658" cy="205.17" rx="1.5" ry="0.95"/><path class="cls-15" d="M653.5,255.47c6.43-.66,11.21-3.08,11.29-6h0v-6.56a38.33,38.33,0,0,1-11.29,2.34Z"/></svg>