<svg id="レイヤー_1" data-name="レイヤー 1" xmlns="http://www.w3.org/2000/svg" xmlns:xlink="http://www.w3.org/1999/xlink" viewBox="0 0 640 320"><defs><style>.cls-1{fill:url(#名称未設定グラデーション_62);}.cls-2{fill:url(#名称未設定グラデーション_34);}.cls-3{fill:url(#名称未設定グラデーション_1041);}.cls-4{fill:#fff;opacity:0.15;}.cls-5{fill:url(#名称未設定グラデーション_932);}.cls-6{fill:url(#名称未設定グラデーション_776);}.cls-7{fill:url(#名称未設定グラデーション_876);}.cls-8{fill:url(#名称未設定グラデーション_1214);}.cls-9{fill:url(#名称未設定グラデーション_1185);}.cls-10{fill:url(#名称未設定グラデーション_1258);}.cls-11{fill:url(#名称未設定グラデーション_201);}.cls-12{fill:url(#名称未設定グラデーション_132);}.cls-13{fill:url(#名称未設定グラデーション_359);}.cls-14{fill:url(#名称未設定グラデーション_1423);}.cls-15{fill:url(#名称未設定グラデーション_1368);}.cls-16{fill:url(#名称未設定グラデーション_1573);}.cls-17{fill:url(#名称未設定グラデーション_637);}.cls-18{fill:url(#名称未設定グラデーション_540);}.cls-19{fill:url(#名称未設定グラデーション_359-2);}.cls-20{fill:url(#名称未設定グラデーション_1792);}.cls-21{fill:url(#名称未設定グラデーション_1722);}.cls-22{fill:url(#名称未設定グラデーション_1832);}.cls-23{fill:url(#名称未設定グラデーション_1158);}.cls-24{fill:url(#名称未設定グラデーション_1044);}.cls-25{fill:url(#名称未設定グラデーション_1179);}</style><linearGradient id="名称未設定グラデーション_62" x1="160" x2="160" y2="80" gradientUnits="userSpaceOnUse"><stop offset="0.32" stop-color="#9395fb"/><stop offset="0.68" stop-color="#0a0045"/></linearGradient><linearGradient id="名称未設定グラデーション_34" x1="160" y1="2.79" x2="160" y2="77.21" gradientUnits="userSpaceOnUse"><stop offset="0" stop-color="#9699ff"/><stop offset="0.18" stop-color="#8183e4"/><stop offset="0.56" stop-color="#4d499e"/><stop offset="1" stop-color="#0a0045"/></linearGradient><linearGradient id="名称未設定グラデーション_1041" x1="170.94" y1="102.04" x2="149.06" y2="-22.04" gradientUnits="userSpaceOnUse"><stop offset="0.14" stop-color="#c4ff94"/><stop offset="0.25" stop-color="#aee48b"/><stop offset="0.49" stop-color="#749e73"/><stop offset="0.83" stop-color="#192f4c"/><stop offset="0.92" stop-color="#001142"/></linearGradient><linearGradient id="名称未設定グラデーション_932" x1="160" y1="80" x2="160" y2="160" gradientUnits="userSpaceOnUse"><stop offset="0.32" stop-color="#93dafb"/><stop offset="0.68" stop-color="#005780"/></linearGradient><linearGradient id="名称未設定グラデーション_776" x1="160" y1="82.79" x2="160" y2="157.21" gradientUnits="userSpaceOnUse"><stop offset="0" stop-color="#96ffe3"/><stop offset="0.21" stop-color="#7be5e2"/><stop offset="0.67" stop-color="#36a2de"/><stop offset="1" stop-color="#006edb"/></linearGradient><linearGradient id="名称未設定グラデーション_876" x1="170.94" y1="182.04" x2="149.06" y2="57.96" gradientUnits="userSpaceOnUse"><stop offset="0.14" stop-color="#c4ff94"/><stop offset="0.25" stop-color="#afe48b"/><stop offset="0.47" stop-color="#779e74"/><stop offset="0.8" stop-color="#202f50"/><stop offset="0.92" stop-color="#000642"/></linearGradient><linearGradient id="名称未設定グラデーション_1214" x1="160" y1="160" x2="160" y2="240" gradientUnits="userSpaceOnUse"><stop offset="0.32" stop-color="#fb3748"/><stop offset="0.68" stop-color="#80000c"/></linearGradient><linearGradient id="名称未設定グラデーション_1185" x1="160" y1="162.79" x2="160" y2="237.21" gradientUnits="userSpaceOnUse"><stop offset="0" stop-color="#ff96b9"/><stop offset="0.18" stop-color="#fa809e"/><stop offset="0.56" stop-color="#ec4758"/><stop offset="1" stop-color="#db0000"/></linearGradient><linearGradient id="名称未設定グラデーション_1258" x1="170.94" y1="262.04" x2="149.06" y2="137.96" gradientUnits="userSpaceOnUse"><stop offset="0.14" stop-color="#c4ff94"/><stop offset="0.24" stop-color="#c4e48a"/><stop offset="0.47" stop-color="#c39e6f"/><stop offset="0.79" stop-color="#c22f46"/><stop offset="0.92" stop-color="#c20034"/></linearGradient><linearGradient id="名称未設定グラデーション_201" x1="160" y1="240" x2="160" y2="320" gradientUnits="userSpaceOnUse"><stop offset="0.32" stop-color="#fb939c"/><stop offset="0.68" stop-color="#80000c"/></linearGradient><linearGradient id="名称未設定グラデーション_132" x1="160" y1="242.79" x2="160" y2="317.21" gradientUnits="userSpaceOnUse"><stop offset="0" stop-color="#ff96b9"/><stop offset="0.21" stop-color="#f87ba3"/><stop offset="0.67" stop-color="#e8366d"/><stop offset="1" stop-color="#db0042"/></linearGradient><linearGradient id="名称未設定グラデーション_359" x1="170.94" y1="342.04" x2="149.06" y2="217.96" gradientUnits="userSpaceOnUse"><stop offset="0.14" stop-color="#c4ff94"/><stop offset="0.24" stop-color="#b6e487"/><stop offset="0.47" stop-color="#929e65"/><stop offset="0.79" stop-color="#5a2f30"/><stop offset="0.92" stop-color="#420019"/></linearGradient><linearGradient id="名称未設定グラデーション_1423" x1="480" x2="480" y2="80" gradientUnits="userSpaceOnUse"><stop offset="0.32" stop-color="#fbaf71"/><stop offset="0.68" stop-color="#9c4f13"/></linearGradient><linearGradient id="名称未設定グラデーション_1368" x1="480" y1="2.79" x2="480" y2="77.21" gradientUnits="userSpaceOnUse"><stop offset="0" stop-color="#ffa673"/><stop offset="0.27" stop-color="#f68f58"/><stop offset="0.85" stop-color="#e15513"/><stop offset="1" stop-color="#db4500"/></linearGradient><linearGradient id="名称未設定グラデーション_1573" x1="490.94" y1="102.04" x2="469.06" y2="-22.04" gradientUnits="userSpaceOnUse"><stop offset="0.14" stop-color="#c4ff94"/><stop offset="0.27" stop-color="#bde47f"/><stop offset="0.57" stop-color="#ac9e48"/><stop offset="0.92" stop-color="#964100"/></linearGradient><linearGradient id="名称未設定グラデーション_637" x1="480" y1="80" x2="480" y2="160" gradientUnits="userSpaceOnUse"><stop offset="0.32" stop-color="#fbc293"/><stop offset="0.68" stop-color="#804600"/></linearGradient><linearGradient id="名称未設定グラデーション_540" x1="480" y1="82.79" x2="480" y2="157.21" gradientUnits="userSpaceOnUse"><stop offset="0" stop-color="#ffb796"/><stop offset="0.21" stop-color="#f8ae7b"/><stop offset="0.67" stop-color="#e89836"/><stop offset="1" stop-color="#db8700"/></linearGradient><linearGradient id="名称未設定グラデーション_359-2" x1="490.94" y1="182.04" x2="469.06" y2="57.96" xlink:href="#名称未設定グラデーション_359"/><linearGradient id="名称未設定グラデーション_1792" x1="480" y1="160" x2="480" y2="240" gradientUnits="userSpaceOnUse"><stop offset="0.32" stop-color="#48913b"/><stop offset="0.68" stop-color="#3d4f0a"/></linearGradient><linearGradient id="名称未設定グラデーション_1722" x1="480" y1="162.79" x2="480" y2="237.21" gradientUnits="userSpaceOnUse"><stop offset="0" stop-color="#a7c74e"/><stop offset="0.23" stop-color="#8dac43"/><stop offset="0.71" stop-color="#4c6727"/><stop offset="1" stop-color="#233b16"/></linearGradient><linearGradient id="名称未設定グラデーション_1832" x1="490.94" y1="262.04" x2="469.06" y2="137.96" gradientUnits="userSpaceOnUse"><stop offset="0.14" stop-color="#c4ff94"/><stop offset="0.27" stop-color="#afe484"/><stop offset="0.54" stop-color="#789e5c"/><stop offset="0.92" stop-color="#24331e"/></linearGradient><linearGradient id="名称未設定グラデーション_1158" x1="480" y1="240" x2="480" y2="320" gradientUnits="userSpaceOnUse"><stop offset="0.32" stop-color="#7cbf70"/><stop offset="0.68" stop-color="#446e00"/></linearGradient><linearGradient id="名称未設定グラデーション_1044" x1="480" y1="242.79" x2="480" y2="317.21" gradientUnits="userSpaceOnUse"><stop offset="0" stop-color="#cbff96"/><stop offset="0.16" stop-color="#b0ea87"/><stop offset="0.51" stop-color="#6ab460"/><stop offset="1" stop-color="#006326"/></linearGradient><linearGradient id="名称未設定グラデーション_1179" x1="490.94" y1="342.04" x2="469.06" y2="217.96" gradientUnits="userSpaceOnUse"><stop offset="0.14" stop-color="#c4ff94"/><stop offset="0.28" stop-color="#aae47f"/><stop offset="0.57" stop-color="#699e48"/><stop offset="0.92" stop-color="#124200"/></linearGradient></defs><path class="cls-1" d="M305.28,80H14.72C6.61,80,0,73.74,0,66.05V14C0,6.26,6.61,0,14.72,0H305.28C313.39,0,320,6.26,320,14v52.1C320,73.74,313.39,80,305.28,80ZM14.72,5.58A8.62,8.62,0,0,0,5.89,14v52.1a8.62,8.62,0,0,0,8.83,8.37H305.28a8.62,8.62,0,0,0,8.83-8.37V14a8.62,8.62,0,0,0-8.83-8.37Z"/><rect class="cls-2" x="2.94" y="2.79" width="314.11" height="74.42" rx="12"/><path class="cls-3" d="M305.28,78.14H14.72C7.69,78.14,2,72.71,2,66.05V14C2,7.29,7.69,1.86,14.72,1.86H305.28c7,0,12.76,5.43,12.76,12.09v52.1C318,72.71,312.31,78.14,305.28,78.14ZM14.72,3.72C8.77,3.72,3.93,8.31,3.93,14v52.1c0,5.64,4.84,10.23,10.79,10.23H305.28c6,0,10.79-4.59,10.79-10.23V14c0-5.64-4.84-10.23-10.79-10.23Z"/><path class="cls-4" d="M305.28,2.79H14.72C8.25,2.79,2.94,7.81,2.94,14V40.89C45,48.74,99.88,53.49,160,53.49s115.05-4.75,157.06-12.6V14C317.06,7.81,311.75,2.79,305.28,2.79Z"/><path class="cls-5" d="M305.28,160H14.72C6.61,160,0,153.74,0,146.05V94c0-7.69,6.61-14,14.72-14H305.28C313.39,80,320,86.26,320,94v52.1C320,153.74,313.39,160,305.28,160ZM14.72,85.58A8.62,8.62,0,0,0,5.89,94v52.1a8.62,8.62,0,0,0,8.83,8.37H305.28a8.62,8.62,0,0,0,8.83-8.37V94a8.62,8.62,0,0,0-8.83-8.37Z"/><rect class="cls-6" x="2.94" y="82.79" width="314.11" height="74.42" rx="12"/><path class="cls-7" d="M305.28,158.14H14.72c-7,0-12.76-5.43-12.76-12.09V94c0-6.66,5.73-12.09,12.76-12.09H305.28c7,0,12.76,5.43,12.76,12.09v52.1C318,152.71,312.31,158.14,305.28,158.14ZM14.72,83.72c-6,0-10.79,4.59-10.79,10.23v52.1c0,5.64,4.84,10.23,10.79,10.23H305.28c6,0,10.79-4.59,10.79-10.23V94c0-5.64-4.84-10.23-10.79-10.23Z"/><path class="cls-4" d="M305.28,82.79H14.72c-6.47,0-11.78,5-11.78,11.16v26.94c42,7.85,96.94,12.6,157.06,12.6s115.05-4.75,157.06-12.6V94C317.06,87.81,311.75,82.79,305.28,82.79Z"/><path class="cls-8" d="M305.28,240H14.72C6.61,240,0,233.74,0,226.05V174C0,166.26,6.61,160,14.72,160H305.28C313.39,160,320,166.26,320,174v52.1C320,233.74,313.39,240,305.28,240ZM14.72,165.58A8.62,8.62,0,0,0,5.89,174v52.1a8.62,8.62,0,0,0,8.83,8.37H305.28a8.62,8.62,0,0,0,8.83-8.37V174a8.62,8.62,0,0,0-8.83-8.37Z"/><rect class="cls-9" x="2.94" y="162.79" width="314.11" height="74.42" rx="12"/><path class="cls-10" d="M305.28,238.14H14.72c-7,0-12.76-5.43-12.76-12.09V174c0-6.66,5.73-12.09,12.76-12.09H305.28c7,0,12.76,5.43,12.76,12.09v52.1C318,232.71,312.31,238.14,305.28,238.14ZM14.72,163.72c-6,0-10.79,4.59-10.79,10.23v52.1c0,5.64,4.84,10.23,10.79,10.23H305.28c6,0,10.79-4.59,10.79-10.23V174c0-5.64-4.84-10.23-10.79-10.23Z"/><path class="cls-4" d="M305.28,162.79H14.72c-6.47,0-11.78,5-11.78,11.16v26.94c42,7.85,96.94,12.6,157.06,12.6s115.05-4.75,157.06-12.6V174C317.06,167.81,311.75,162.79,305.28,162.79Z"/><path class="cls-11" d="M305.28,320H14.72C6.61,320,0,313.74,0,306.05V254C0,246.26,6.61,240,14.72,240H305.28C313.39,240,320,246.26,320,254v52.1C320,313.74,313.39,320,305.28,320ZM14.72,245.58A8.62,8.62,0,0,0,5.89,254v52.1a8.62,8.62,0,0,0,8.83,8.37H305.28a8.62,8.62,0,0,0,8.83-8.37V254a8.62,8.62,0,0,0-8.83-8.37Z"/><rect class="cls-12" x="2.94" y="242.79" width="314.11" height="74.42" rx="12"/><path class="cls-13" d="M305.28,318.14H14.72c-7,0-12.76-5.43-12.76-12.09V254c0-6.66,5.73-12.09,12.76-12.09H305.28c7,0,12.76,5.43,12.76,12.09v52.1C318,312.71,312.31,318.14,305.28,318.14ZM14.72,243.72c-6,0-10.79,4.59-10.79,10.23v52.1c0,5.64,4.84,10.23,10.79,10.23H305.28c6,0,10.79-4.59,10.79-10.23V254c0-5.64-4.84-10.23-10.79-10.23Z"/><path class="cls-4" d="M305.28,242.79H14.72c-6.47,0-11.78,5-11.78,11.16v26.94c42,7.85,96.94,12.6,157.06,12.6s115.05-4.75,157.06-12.6V254C317.06,247.81,311.75,242.79,305.28,242.79Z"/><path class="cls-14" d="M625.28,80H334.72c-8.11,0-14.72-6.26-14.72-14V14C320,6.26,326.61,0,334.72,0H625.28C633.39,0,640,6.26,640,14v52.1C640,73.74,633.39,80,625.28,80ZM334.72,5.58A8.62,8.62,0,0,0,325.89,14v52.1a8.62,8.62,0,0,0,8.83,8.37H625.28a8.62,8.62,0,0,0,8.83-8.37V14a8.62,8.62,0,0,0-8.83-8.37Z"/><rect class="cls-15" x="322.94" y="2.79" width="314.11" height="74.42" rx="12"/><path class="cls-16" d="M625.28,78.14H334.72c-7,0-12.76-5.43-12.76-12.09V14c0-6.66,5.73-12.09,12.76-12.09H625.28c7,0,12.76,5.43,12.76,12.09v52.1C638,72.71,632.31,78.14,625.28,78.14ZM334.72,3.72c-6,0-10.79,4.59-10.79,10.23v52.1c0,5.64,4.84,10.23,10.79,10.23H625.28c6,0,10.79-4.59,10.79-10.23V14c0-5.64-4.84-10.23-10.79-10.23Z"/><path class="cls-4" d="M625.28,2.79H334.72c-6.47,0-11.78,5-11.78,11.16V40.89c42,7.85,96.94,12.6,157.06,12.6s115-4.75,157.06-12.6V14C637.06,7.81,631.75,2.79,625.28,2.79Z"/><path class="cls-17" d="M625.28,160H334.72c-8.11,0-14.72-6.26-14.72-13.95V94c0-7.69,6.61-14,14.72-14H625.28C633.39,80,640,86.26,640,94v52.1C640,153.74,633.39,160,625.28,160ZM334.72,85.58A8.62,8.62,0,0,0,325.89,94v52.1a8.62,8.62,0,0,0,8.83,8.37H625.28a8.62,8.62,0,0,0,8.83-8.37V94a8.62,8.62,0,0,0-8.83-8.37Z"/><rect class="cls-18" x="322.94" y="82.79" width="314.11" height="74.42" rx="12"/><path class="cls-19" d="M625.28,158.14H334.72c-7,0-12.76-5.43-12.76-12.09V94c0-6.66,5.73-12.09,12.76-12.09H625.28c7,0,12.76,5.43,12.76,12.09v52.1C638,152.71,632.31,158.14,625.28,158.14ZM334.72,83.72c-6,0-10.79,4.59-10.79,10.23v52.1c0,5.64,4.84,10.23,10.79,10.23H625.28c6,0,10.79-4.59,10.79-10.23V94c0-5.64-4.84-10.23-10.79-10.23Z"/><path class="cls-4" d="M625.28,82.79H334.72c-6.47,0-11.78,5-11.78,11.16v26.94c42,7.85,96.94,12.6,157.06,12.6s115-4.75,157.06-12.6V94C637.06,87.81,631.75,82.79,625.28,82.79Z"/><path class="cls-20" d="M625.28,240H334.72c-8.11,0-14.72-6.26-14.72-13.95V174c0-7.69,6.61-13.95,14.72-13.95H625.28C633.39,160,640,166.26,640,174v52.1C640,233.74,633.39,240,625.28,240ZM334.72,165.58a8.62,8.62,0,0,0-8.83,8.37v52.1a8.62,8.62,0,0,0,8.83,8.37H625.28a8.62,8.62,0,0,0,8.83-8.37V174a8.62,8.62,0,0,0-8.83-8.37Z"/><rect class="cls-21" x="322.94" y="162.79" width="314.11" height="74.42" rx="12"/><path class="cls-22" d="M625.28,238.14H334.72c-7,0-12.76-5.43-12.76-12.09V174c0-6.66,5.73-12.09,12.76-12.09H625.28c7,0,12.76,5.43,12.76,12.09v52.1C638,232.71,632.31,238.14,625.28,238.14ZM334.72,163.72c-6,0-10.79,4.59-10.79,10.23v52.1c0,5.64,4.84,10.23,10.79,10.23H625.28c6,0,10.79-4.59,10.79-10.23V174c0-5.64-4.84-10.23-10.79-10.23Z"/><path class="cls-4" d="M625.28,162.79H334.72c-6.47,0-11.78,5-11.78,11.16v26.94c42,7.85,96.94,12.6,157.06,12.6s115-4.75,157.06-12.6V174C637.06,167.81,631.75,162.79,625.28,162.79Z"/><path class="cls-23" d="M625.28,320H334.72c-8.11,0-14.72-6.26-14.72-13.95V254c0-7.69,6.61-13.95,14.72-13.95H625.28C633.39,240,640,246.26,640,254v52.1C640,313.74,633.39,320,625.28,320ZM334.72,245.58a8.62,8.62,0,0,0-8.83,8.37v52.1a8.62,8.62,0,0,0,8.83,8.37H625.28a8.62,8.62,0,0,0,8.83-8.37V254a8.62,8.62,0,0,0-8.83-8.37Z"/><rect class="cls-24" x="322.94" y="242.79" width="314.11" height="74.42" rx="12"/><path class="cls-25" d="M625.28,318.14H334.72c-7,0-12.76-5.43-12.76-12.09V254c0-6.66,5.73-12.09,12.76-12.09H625.28c7,0,12.76,5.43,12.76,12.09v52.1C638,312.71,632.31,318.14,625.28,318.14ZM334.72,243.72c-6,0-10.79,4.59-10.79,10.23v52.1c0,5.64,4.84,10.23,10.79,10.23H625.28c6,0,10.79-4.59,10.79-10.23V254c0-5.64-4.84-10.23-10.79-10.23Z"/><path class="cls-4" d="M625.28,242.79H334.72c-6.47,0-11.78,5-11.78,11.16v26.94c42,7.85,96.94,12.6,157.06,12.6s115-4.75,157.06-12.6V254C637.06,247.81,631.75,242.79,625.28,242.79Z"/></svg>